<svg xmlns="http://www.w3.org/2000/svg" fill="none" viewBox="0 0 48 46">
  <path d="M15.934 30.35C11.39 32.434 6.84 34.52 2.3 36.795c-1.78.948-2.444 3.034-2.274 4.93.082 1.138-.36 2.655.876 3.413 1.175.57 2.553.19 3.829.38h41.233c1.53-.19 1.935-1.707 1.786-2.844.028-1.897.135-3.793-1.308-5.12-1.175-1.138-2.854-1.707-4.29-2.465-3.436-1.517-6.874-3.224-10.31-4.74H15.934z" fill="#2C3E50"/>
  <path d="M15.934 30.35h15.908l-3.977 15.169H19.91l-3.977-15.17z" fill="#BDC3C7"/>
  <path d="M19.913 34.142v5.688l1.989 1.897-1.989 3.792h7.954l-1.988-3.792 1.988-1.897v-5.688h-7.954z" fill="#2C3E50"/>
  <path d="M17.92 24.66h11.93v9.482H17.92V24.66z" fill="#A69B95"/>
  <path d="M15.934 30.35l1.989-1.897 5.966 5.689 5.965-5.689 1.989 1.896-3.977 9.481-3.977-5.688-3.977 5.688-3.977-9.48z" fill="#ECF0F1"/>
  <path d="M23.89.01c-5.892 0-10.775 5.1-11.745 11.792-.226-.059-.478-.124-.684-.06-1.044.325-1.302 2.216-.622 4.208.4 1.168 1.063 2.088 1.74 2.607 1.544 5.722 5.996 9.896 11.31 9.896 5.313 0 9.766-4.174 11.31-9.896.677-.519 1.341-1.439 1.739-2.607.68-1.992.423-3.883-.62-4.207-.207-.065-.458 0-.685.059C34.663 5.11 29.781.01 23.89.01z" fill="#A69B95"/>
  <path d="M15.933 30.35l-3.977 1.895v5.69h3.977l-3.977 1.895 3.977 5.689h3.977l-3.977-15.17zm15.908 0l-3.977 15.169h3.977l3.977-5.689-3.977-1.896h3.977v-5.689l-3.977-1.896z" fill="#34495E"/>
  <path d="M23.889.01c-4.063-.19-7.833 2.465-9.903 6.067-1.055 1.707-1.758 3.793-2.068 5.69.665-.19 1.193.189 1.796-.57 1.25-1.137 1.806-2.086 2.26-3.603.776-1.706 2.472-4.36 3.977-3.792 1.378.38 1.989 1.138 3.977 1.138 1.989 0 2.6-.759 3.977-1.138 1.506-.569 3.202 2.086 3.977 3.792.454 1.517.931 2.466 2.182 3.603.602.759 1.13.38 1.795.57-.31-1.897-1.014-3.983-2.068-5.69C31.721 2.475 27.951-.18 23.89.01z" fill="#5E4834"/>
</svg>
