<svg xmlns="http://www.w3.org/2000/svg" fill="none" viewBox="0 0 27 45">
  <path d="M5.35 29.66l1.944-1.854 5.831 5.56 5.832-5.56 1.944 1.853-3.888 9.269-3.888-5.561-3.888 5.561-3.887-9.269z" fill="#ECF0F1"/>
  <path d="M13.126 0C7.367 0 2.594 4.986 1.645 11.528c-.22-.058-.467-.12-.668-.058-1.021.317-1.273 2.166-.608 4.113.39 1.142 1.04 2.042 1.701 2.549 1.51 5.594 5.861 9.674 11.056 9.674 5.194 0 9.547-4.08 11.057-9.674.661-.508 1.31-1.407 1.7-2.55.664-1.946.413-3.795-.607-4.112-.202-.063-.447 0-.669.058C23.658 4.986 18.887 0 13.127 0z" fill="#A69B95"/>
  <path d="M5.349 29.66L1.46 31.512v5.561h3.888L1.46 38.928l3.888 5.561h3.888L5.349 29.66zm15.551 0l-3.888 14.83H20.9l3.888-5.562-3.888-1.854h3.888v-5.56L20.9 29.658z" fill="#34495E"/>
</svg>
