<svg xmlns="http://www.w3.org/2000/svg" fill="none" viewBox="0 0 46 46">
  <g clip-path="url(#5F7oMLOSy3rsa)">
    <path d="M8.155.745H37.19a7.5 7.5 0 017.5 7.5V37.28a7.5 7.5 0 01-7.5 7.5H8.155a7.5 7.5 0 01-7.5-7.5V8.245a7.5 7.5 0 017.5-7.5z" fill="#FCFCFC" stroke="#DDD"/>
    <mask id="5F7oMLOSy3rsb" style="mask-type:alpha" maskUnits="userSpaceOnUse" x="0" y="0" width="46" height="46">
      <path d="M8.155 3.245H37.19a5 5 0 015 5V37.28a5 5 0 01-5 5H8.155a5 5 0 01-5-5V8.245a5 5 0 015-5z" fill="#FCFCFC" stroke="#919191" stroke-width="6"/>
    </mask>
    <g mask="url(#5F7oMLOSy3rsb)">
      <path d="M14.844 32.285C10.3 34.371 5.75 36.457 1.21 38.732c-1.78.948-2.445 3.034-2.275 4.93.083 1.138-.36 2.655.876 3.413 1.175.57 2.553.19 3.829.38h41.234c1.529-.19 1.934-1.707 1.785-2.844.028-1.897.136-3.793-1.308-5.12-1.175-1.138-2.854-1.707-4.29-2.465-3.435-1.517-6.874-3.224-10.31-4.74H14.844z" fill="#2C3E50"/>
      <path d="M14.844 32.285h15.908l-3.977 15.17H18.82l-3.977-15.17z" fill="#BDC3C7"/>
      <path d="M18.823 36.078v5.688l1.989 1.897-1.989 3.792h7.954l-1.988-3.792 1.988-1.897v-5.688h-7.954z" fill="#2C3E50"/>
      <path d="M16.83 26.596h11.931v9.482h-11.93v-9.482z" fill="#A69B95"/>
      <path d="M14.845 32.285l1.988-1.896 5.966 5.689 5.965-5.689 1.989 1.896-3.977 9.481-3.977-5.688-3.977 5.688-3.977-9.48z" fill="#ECF0F1"/>
      <path d="M22.8 1.946c-5.892 0-10.775 5.1-11.745 11.792-.226-.059-.478-.124-.684-.06-1.044.325-1.301 2.216-.621 4.208.399 1.168 1.063 2.088 1.74 2.607 1.543 5.722 5.995 9.896 11.31 9.896 5.313 0 9.765-4.174 11.31-9.896.676-.519 1.34-1.439 1.738-2.607.68-1.992.424-3.883-.62-4.207-.207-.065-.458 0-.684.059-.97-6.692-5.853-11.792-11.745-11.792z" fill="#A69B95"/>
      <path d="M14.843 32.285l-3.977 1.896v5.69h3.977l-3.977 1.895 3.977 5.689h3.977l-3.977-15.17zm15.908 0l-3.977 15.17h3.977l3.977-5.689-3.977-1.896h3.977v-5.689l-3.977-1.896z" fill="#34495E"/>
      <path d="M22.799 1.946c-4.063-.19-7.832 2.465-9.903 6.067-1.055 1.707-1.758 3.793-2.068 5.69.665-.19 1.194.189 1.796-.57 1.25-1.137 1.806-2.085 2.26-3.603.776-1.706 2.472-4.36 3.977-3.792 1.379.38 1.99 1.138 3.978 1.138 1.988 0 2.599-.759 3.977-1.138 1.505-.569 3.201 2.086 3.977 3.792.453 1.518.93 2.466 2.181 3.603.603.759 1.13.38 1.796.57-.31-1.897-1.015-3.983-2.068-5.69-2.07-3.602-5.84-6.257-9.903-6.067z" fill="#5E4834"/>
    </g>
  </g>
  <defs>
    <clipPath id="5F7oMLOSy3rsa">
      <path fill="#fff" d="M0 0h46v46H0z"/>
    </clipPath>
  </defs>
</svg>
